<?xml version="1.0" encoding="utf-8"?>
<!-- Generator: Avocode 2.3.0-ddf81ed - http://avocode.com -->
<svg height="50" width="50" xmlns:xlink="http://www.w3.org/1999/xlink" xmlns="http://www.w3.org/2000/svg" viewBox="0 0 50 50">
    <path fill="#ffffff" opacity="0.75" fill-rule="evenodd" d="M 25 50 C 38.81 50 50 38.81 50 25 C 50 11.19 38.81 0 25 0 C 11.19 0 0 11.19 0 25 C 0 38.81 11.19 50 25 50 Z M 25 3 C 37.15 3 47 12.85 47 25 C 47 37.15 37.15 47 25 47 C 12.85 47 3 37.15 3 25 C 3 12.85 12.85 3 25 3 Z M 16.47 26.15 C 16.47 26.15 27.06 36.53 27.06 36.53 C 27.7 37.16 28.78 37.13 29.46 36.47 C 30.14 35.8 30.17 34.75 29.52 34.11 C 29.52 34.11 20.22 25 20.22 25 C 20.22 25 29.52 15.89 29.52 15.89 C 30.17 15.25 30.14 14.2 29.46 13.54 C 28.78 12.87 27.7 12.84 27.06 13.48 C 27.06 13.48 16.47 23.85 16.47 23.85 C 16.16 24.15 16.01 24.54 16 24.93 C 16 24.96 16 24.98 16 25 C 16 25.02 16 25.04 16 25.07 C 16.01 25.47 16.16 25.85 16.47 26.15 Z" />
</svg>