<?xml version="1.0" encoding="utf-8"?>
<!-- Generator: Avocode 2.3.0-ddf81ed - http://avocode.com -->
<svg height="21" width="24" xmlns:xlink="http://www.w3.org/1999/xlink" xmlns="http://www.w3.org/2000/svg" viewBox="0 0 24 21">
    <path fill="#ffffff" fill-rule="evenodd" d="M 22.5 21 C 22.5 21 1.5 21 1.5 21 C 0.67 21 0 20.33 0 19.5 C 0 19.5 0 4.5 0 4.5 C 0 3.67 0.67 3 1.5 3 C 1.5 3 7 3 7 3 C 7 3 7 1.5 7 1.5 C 7 0.67 7.67 0 8.5 0 C 8.5 0 15.5 0 15.5 0 C 16.33 0 17 0.67 17 1.5 C 17 1.5 17 3 17 3 C 17 3 22.5 3 22.5 3 C 23.33 3 24 3.67 24 4.5 C 24 4.5 24 19.5 24 19.5 C 24 20.33 23.33 21 22.5 21 Z M 15 2 C 15 2 9 2 9 2 C 9 2 9 3 9 3 C 9 3 15 3 15 3 C 15 3 15 2 15 2 Z M 21 6 C 21 6 3 6 3 6 C 3 6 3 18 3 18 C 3 18 21 18 21 18 C 21 18 21 6 21 6 Z M 9 13.33 C 11.21 13.33 13 14.53 13 16 C 13 16 5 16 5 16 C 5 14.53 6.79 13.33 9 13.33 Z M 19 10 C 19 10 14 10 14 10 C 14 10 14 8 14 8 C 14 8 19 8 19 8 C 19 8 19 10 19 10 Z M 19 13 C 19 13 14 13 14 13 C 14 13 14 11 14 11 C 14 11 19 11 19 11 C 19 11 19 13 19 13 Z M 19 16 C 19 16 14 16 14 16 C 14 16 14 14 14 14 C 14 14 19 14 19 14 C 19 14 19 16 19 16 Z M 9 13.33 C 7.89 13.33 7 12.14 7 10.67 C 7 9.19 7.89 8 9 8 C 10.11 8 11 9.19 11 10.67 C 11 12.14 10.11 13.33 9 13.33 Z" />
</svg>