<?xml version="1.0" encoding="utf-8"?>
<!-- Generator: Avocode 2.3.2-e7da973 - http://avocode.com -->
<svg height="66" width="97" xmlns:xlink="http://www.w3.org/1999/xlink" xmlns="http://www.w3.org/2000/svg" viewBox="0 0 97 66">
    <path fill="#f3f3f3" fill-rule="evenodd" d="M 63.59 9.42 C 57.37 17.44 54.27 26.5 54.27 36.6 C 54.27 45.29 56.55 52.21 61.12 57.38 C 65.68 62.55 71.11 65.13 77.4 65.13 C 82.79 65.13 87.38 63.22 91.16 59.4 C 94.94 55.58 96.83 51.17 96.83 46.15 C 96.83 41.36 95.18 37.22 91.89 33.74 C 88.59 30.26 84.81 28.52 80.55 28.52 C 76.88 28.52 73.85 29.38 71.45 31.1 C 70.7 31.63 70.14 31.89 69.77 31.89 C 69.39 31.89 69.05 31.66 68.76 31.21 C 68.31 30.54 68.08 29.49 68.08 28.07 C 68.08 21.48 70.29 15.13 74.71 9.03 C 79.12 2.93 85.23 -1.54 93.01 -4.39 C 93.01 -4.39 93.01 -9.89 93.01 -9.89 C 79.61 -5.02 69.8 1.41 63.59 9.42 Z M 9.57 9.42 C 3.35 17.44 0.25 26.5 0.25 36.6 C 0.25 45.29 2.53 52.21 7.1 57.38 C 11.67 62.55 17.1 65.13 23.38 65.13 C 28.77 65.13 33.36 63.22 37.14 59.4 C 40.92 55.58 42.81 51.17 42.81 46.15 C 42.81 41.36 41.16 37.22 37.87 33.74 C 34.58 30.26 30.8 28.52 26.53 28.52 C 22.86 28.52 19.83 29.38 17.43 31.1 C 16.68 31.63 16.12 31.89 15.75 31.89 C 15.37 31.89 15.03 31.66 14.74 31.21 C 14.29 30.54 14.06 29.49 14.06 28.07 C 14.06 21.48 16.27 15.13 20.69 9.03 C 25.1 2.93 31.21 -1.54 38.99 -4.39 C 38.99 -4.39 38.99 -9.89 38.99 -9.89 C 25.59 -5.02 15.78 1.41 9.57 9.42 Z" />
</svg>