<?xml version="1.0" encoding="utf-8"?>
<!-- Generator: Avocode 2.3.0-ddf81ed - http://avocode.com -->
<svg height="24" width="24" xmlns:xlink="http://www.w3.org/1999/xlink" xmlns="http://www.w3.org/2000/svg" viewBox="0 0 24 24">
    <path fill="#ffffff" fill-rule="evenodd" d="M 23.61 22.99 C 23.61 22.99 22.99 23.61 22.99 23.61 C 22.48 24.12 21.65 24.12 21.14 23.61 C 21.14 23.61 16.58 19.05 16.58 19.05 C 14.87 20.27 12.77 21 10.5 21 C 4.7 21 0 16.3 0 10.5 C 0 4.7 4.7 0 10.5 0 C 16.3 0 21 4.7 21 10.5 C 21 12.77 20.27 14.87 19.05 16.58 C 19.05 16.58 23.61 21.14 23.61 21.14 C 24.12 21.66 24.12 22.48 23.61 22.99 Z M 10.5 3 C 6.36 3 3 6.36 3 10.5 C 3 14.64 6.36 18 10.5 18 C 12.24 18 13.81 17.39 15.09 16.4 C 15.15 16.25 15.24 16.1 15.36 15.98 C 15.36 15.98 15.98 15.36 15.98 15.36 C 16.1 15.24 16.25 15.15 16.4 15.09 C 17.39 13.81 18 12.24 18 10.5 C 18 6.36 14.64 3 10.5 3 Z" />
</svg>