<?xml version="1.0" encoding="utf-8"?>
<!-- Generator: Avocode 2.3.2-e7da973 - http://avocode.com -->
<svg height="72" width="96" xmlns:xlink="http://www.w3.org/1999/xlink" xmlns="http://www.w3.org/2000/svg" viewBox="0 0 96 72">
    <path fill="#f3f3f3" fill-rule="evenodd" d="M 90 72 C 90 72 6 72 6 72 C 2.69 72 0 69.31 0 66 C 0 66 0 6 0 6 C 0 2.69 2.69 0 6 0 C 6 0 90 0 90 0 C 93.31 0 96 2.69 96 6 C 96 6 96 66 96 66 C 96 69.31 93.31 72 90 72 Z M 84 60 C 84 60 84 16.57 84 16.57 C 84 16.57 48 52.57 48 52.57 C 48 52.57 12 16.57 12 16.57 C 12 16.57 12 60 12 60 C 12 60 84 60 84 60 Z M 75.18 12 C 75.18 12 20.82 12 20.82 12 C 20.82 12 48 39.18 48 39.18 C 48 39.18 75.18 12 75.18 12 Z" />
</svg>