<?xml version="1.0" encoding="utf-8"?>
<!-- Generator: Avocode 2.3.0-ddf81ed - http://avocode.com -->
<svg height="16" width="9" xmlns:xlink="http://www.w3.org/1999/xlink" xmlns="http://www.w3.org/2000/svg" viewBox="0 0 9 16">
    <path fill="#aaaaaa" fill-rule="evenodd" d="M 8.7 8.76 C 8.7 8.76 1.98 15.59 1.98 15.59 C 1.57 16 0.88 15.99 0.45 15.55 C 0.02 15.11 0 14.42 0.41 14 C 0.41 14 6.32 8.01 6.32 8.01 C 6.32 8.01 0.41 2.01 0.41 2.01 C 0 1.59 0.02 0.9 0.45 0.46 C 0.88 0.02 1.57 0 1.98 0.42 C 1.98 0.42 8.7 7.25 8.7 7.25 C 8.9 7.44 8.99 7.7 9 7.96 C 9 7.97 9 7.99 9 8.01 C 9 8.02 9 8.03 9 8.05 C 8.99 8.31 8.9 8.56 8.7 8.76 Z" />
</svg>