<?xml version="1.0" encoding="utf-8"?>
<!-- Generator: Avocode 2.3.0-ddf81ed - http://avocode.com -->
<svg height="16" width="9" xmlns:xlink="http://www.w3.org/1999/xlink" xmlns="http://www.w3.org/2000/svg" viewBox="0 0 9 16">
    <path fill="#aaaaaa" fill-rule="evenodd" d="M 0.3 8.76 C 0.3 8.76 7.03 15.59 7.03 15.59 C 7.44 16 8.12 15.99 8.55 15.55 C 8.98 15.11 9 14.42 8.59 14 C 8.59 14 2.68 8.01 2.68 8.01 C 2.68 8.01 8.59 2.01 8.59 2.01 C 9 1.59 8.98 0.9 8.55 0.46 C 8.12 0.02 7.44 0 7.03 0.42 C 7.03 0.42 0.3 7.25 0.3 7.25 C 0.1 7.44 0.01 7.7 0 7.96 C 0 7.97 0 7.99 0 8.01 C 0 8.02 0 8.03 0 8.05 C 0.01 8.31 0.1 8.56 0.3 8.76 Z" />
</svg>