<?xml version="1.0" encoding="utf-8"?>
<!-- Generator: Avocode 2.3.0-ddf81ed - http://avocode.com -->
<svg height="50" width="50" xmlns:xlink="http://www.w3.org/1999/xlink" xmlns="http://www.w3.org/2000/svg" viewBox="0 0 50 50">
    <path fill="#ffffff" opacity="0.75" fill-rule="evenodd" d="M 25 50 C 11.19 50 0 38.81 0 25 C 0 11.19 11.19 0 25 0 C 38.81 0 50 11.19 50 25 C 50 38.81 38.81 50 25 50 Z M 25 3 C 12.85 3 3 12.85 3 25 C 3 37.15 12.85 47 25 47 C 37.15 47 47 37.15 47 25 C 47 12.85 37.15 3 25 3 Z M 33.53 26.15 C 33.53 26.15 22.94 36.53 22.94 36.53 C 22.3 37.16 21.22 37.13 20.54 36.47 C 19.86 35.8 19.83 34.75 20.48 34.11 C 20.48 34.11 29.78 25 29.78 25 C 29.78 25 20.48 15.89 20.48 15.89 C 19.83 15.25 19.86 14.2 20.54 13.54 C 21.22 12.87 22.3 12.84 22.94 13.48 C 22.94 13.48 33.53 23.85 33.53 23.85 C 33.84 24.15 33.99 24.54 34 24.93 C 34 24.96 34 24.98 34 25 C 34 25.02 34 25.04 34 25.07 C 33.99 25.47 33.84 25.85 33.53 26.15 Z" />
</svg>