<?xml version="1.0" encoding="utf-8"?>
<!-- Generator: Avocode 2.3.0-ddf81ed - http://avocode.com -->
<svg height="40" width="64" xmlns:xlink="http://www.w3.org/1999/xlink" xmlns="http://www.w3.org/2000/svg" viewBox="0 0 64 40">
    <path fill="#ffffff" fill-rule="evenodd" d="M 32 40 C 18.15 40 6.12 31.9 0 20 C 6.12 8.1 18.15 0 32 0 C 45.85 0 57.88 8.1 64 20 C 57.88 31.9 45.85 40 32 40 Z M 32 4 C 23.16 4 16 11.16 16 20 C 16 28.84 23.16 36 32 36 C 40.84 36 48 28.84 48 20 C 48 11.16 40.84 4 32 4 Z M 32 28 C 27.58 28 24 24.42 24 20 C 24 15.58 27.58 12 32 12 C 32.82 12 33.59 12.16 34.33 12.39 C 32.96 13.02 32 14.39 32 16 C 32 18.21 33.79 20 36 20 C 37.61 20 38.98 19.04 39.61 17.67 C 39.84 18.41 40 19.18 40 20 C 40 24.42 36.42 28 32 28 Z" />
</svg>