<?xml version="1.0" encoding="utf-8"?>
<!-- Generator: Avocode 2.3.2-e7da973 - http://avocode.com -->
<svg height="76" width="98" xmlns:xlink="http://www.w3.org/1999/xlink" xmlns="http://www.w3.org/2000/svg" viewBox="0 0 98 76">
    <path fill="#f3f3f3" fill-rule="evenodd" d="M 33.72 55.7 C 39.93 47.69 43.04 38.63 43.04 28.52 C 43.04 19.84 40.74 12.93 36.13 7.8 C 31.53 2.67 26.12 0.11 19.9 0.11 C 14.44 0.11 9.83 2 6.09 5.78 C 2.34 9.56 0.47 14 0.47 19.09 C 0.47 23.88 2.1 28.02 5.36 31.5 C 8.62 34.98 12.41 36.72 16.76 36.72 C 20.35 36.72 23.35 35.86 25.74 34.14 C 26.57 33.54 27.16 33.24 27.54 33.24 C 27.91 33.24 28.21 33.46 28.44 33.91 C 28.89 34.59 29.11 35.64 29.11 37.06 C 29.11 43.65 26.9 49.99 22.49 56.09 C 18.07 62.2 12 66.67 4.29 69.51 C 4.29 69.51 4.29 75.13 4.29 75.13 C 17.69 70.19 27.5 63.71 33.72 55.7 Z M 87.73 55.7 C 93.95 47.69 97.06 38.63 97.06 28.52 C 97.06 19.84 94.75 12.93 90.15 7.8 C 85.54 2.67 80.13 0.11 73.92 0.11 C 68.46 0.11 63.85 2 60.11 5.78 C 56.36 9.56 54.49 14 54.49 19.09 C 54.49 23.88 56.12 28.02 59.38 31.5 C 62.63 34.98 66.43 36.72 70.78 36.72 C 74.37 36.72 77.36 35.86 79.76 34.14 C 80.58 33.54 81.18 33.24 81.56 33.24 C 81.93 33.24 82.23 33.46 82.46 33.91 C 82.9 34.59 83.13 35.64 83.13 37.06 C 83.13 43.65 80.92 49.99 76.5 56.09 C 72.09 62.2 66.02 66.67 58.31 69.51 C 58.31 69.51 58.31 75.13 58.31 75.13 C 71.71 70.19 81.52 63.71 87.73 55.7 Z" />
</svg>