<?xml version="1.0" encoding="utf-8"?>
<!-- Generator: Avocode 2.3.0-ddf81ed - http://avocode.com -->
<svg height="22" width="24" xmlns:xlink="http://www.w3.org/1999/xlink" xmlns="http://www.w3.org/2000/svg" viewBox="0 0 24 22">
    <path fill="#ffffff" fill-rule="evenodd" d="M 22.5 11 C 22.5 11 22.36 11 22.36 11 C 22.36 11 19.83 20.54 19.83 20.54 C 19.63 21.35 18.78 22 17.93 22 C 17.93 22 6.07 22 6.07 22 C 5.22 22 4.37 21.35 4.18 20.54 C 4.18 20.54 1.64 11 1.64 11 C 1.64 11 1.5 11 1.5 11 C 0.67 11 0 10.33 0 9.5 C 0 8.67 0.67 8 1.5 8 C 1.5 8 2.43 8 2.43 8 C 2.43 8 21.57 8 21.57 8 C 21.57 8 22.5 8 22.5 8 C 23.33 8 24 8.67 24 9.5 C 24 10.33 23.33 11 22.5 11 Z M 13 20 C 13 20 17 20 17 20 C 17.55 20 18 19.55 18 19 C 18 18.45 17.55 18 17 18 C 17 18 13 18 13 18 C 13 18 13 20 13 20 Z M 13 16 C 13 16 18 16 18 16 C 18.55 16 19 15.55 19 15 C 19 14.45 18.55 14 18 14 C 18 14 13 14 13 14 C 13 14 13 16 13 16 Z M 11 10 C 11 10 5 10 5 10 C 4.45 10 4 10.45 4 11 C 4 11.55 4.45 12 5 12 C 5 12 11 12 11 12 C 11 12 11 10 11 10 Z M 11 14 C 11 14 6 14 6 14 C 5.45 14 5 14.45 5 15 C 5 15.55 5.45 16 6 16 C 6 16 11 16 11 16 C 11 16 11 14 11 14 Z M 11 18 C 11 18 7 18 7 18 C 6.45 18 6 18.45 6 19 C 6 19.55 6.45 20 7 20 C 7 20 11 20 11 20 C 11 20 11 18 11 18 Z M 19 10 C 19 10 13 10 13 10 C 13 10 13 12 13 12 C 13 12 19 12 19 12 C 19.55 12 20 11.55 20 11 C 20 10.45 19.55 10 19 10 Z M 17.94 6.63 C 17.94 6.63 13.37 2.06 13.37 2.06 C 12.89 1.58 12.89 0.82 13.37 0.34 C 13.84 -0.13 14.61 -0.13 15.08 0.34 C 15.08 0.34 19.66 4.92 19.66 4.92 C 20.13 5.39 20.13 6.16 19.66 6.63 C 19.18 7.11 18.42 7.11 17.94 6.63 Z M 6.06 6.63 C 5.58 7.11 4.82 7.11 4.34 6.63 C 3.87 6.16 3.87 5.39 4.34 4.92 C 4.34 4.92 8.92 0.34 8.92 0.34 C 9.39 -0.13 10.16 -0.13 10.63 0.34 C 11.11 0.82 11.11 1.58 10.63 2.06 C 10.63 2.06 6.06 6.63 6.06 6.63 Z" />
</svg>